{"title":"The.Chronicles.Of.Narnia.Duology.720p.BRRip.XviD.AC3-LEGi0N","uid":5742822,"size":8712313694,"categoryP":"video","categoryS":"hd___movies","magnet":"?xt=urn:btih:3da1359c9efc74e77233ff199b67592f14cafefe&amp;dn=The.Chronicles.Of.Narnia.Duology.720p.BRRip.XviD.AC3-LEGi0N&amp;tr=udp%3A%2F%2Ftracker.openbittorrent.com%3A80&amp;tr=udp%3A%2F%2Fopen.demonii.com%3A1337&amp;tr=udp%3A%2F%2Ftracker.coppersurfer.tk%3A6969&amp;tr=udp%3A%2F%2Fexodus.desync.com%3A6969","seeders":0,"leechers":0,"uploader":"insinuendo","files":3,"time":1281091573,"description":"The Chronicles Of Narnia: The Lion The Witch And The Wardrobe 2005 720p BRRip XviD AC3-LEGi0N\n\nGeneral\nFormat: AVI\nFile size: 4.01 GiB\nDuration: 2h 22mn\nOverall bit rate: 4 019 Kbps\nIMDb Rating: 7.0/10 100,174 votes\nGenre: Adventure | Family | Fantasy\nRelease Date: 9 December 2005\nIMDb Link: http://www.imdb.com/title/tt0363771/\nSource: 1080p Bluray x264-1920\n\nVideo\nFormat: MPEG-4 Visual\nFormat profile: Streaming Video@L1\nFormat settings, BVOP: Yes\nFormat settings, QPel: No\nFormat settings, GMC: No warppoints\nFormat settings, Matrix: Default (H.263)\nMuxing mode: Packed bitstream\nCodec ID: XVID\nBit rate: 3 561 Kbps\nWidth: 1 280 pixels\nHeight: 544 pixels\nDisplay aspect ratio: 2.35\nFrame rate: 23.976 fps\nResolution: 24 bits\nColorimetry: 4:2:0\nScan type: Progressive\nBits/(Pixel*Frame): 0.213\nStream size: 3.55 GiB (89%)\n\nAudio\nFormat: AC-3\nBit rate mode: Constant\nBit rate: 448 Kbps\nChannel(s): 6 channels\nSampling rate: 48.0 KHz\nStream size: 458 MiB (11%) \n\n\n\n\nThe Chronicles Of Narnia: Prince Caspian 2008 720p BRRip XviD AC3-LEGi0N\n\nGeneral\nFormat: AVI\nFile size: 4.10 GiB\nDuration: 2h 29mn\nOverall bit rate: 3 918 Kbps\nIMDb Rating: 6.9/10 45,576 votes\nGenre: Action | Adventure | Family | Fantasy\nRelease Date: 16 May 2008\nIMDb Link: http://www.imdb.com/title/tt0499448/\nSource: 1080p Bluray x264-CULTHD\n\nVideo\nFormat: MPEG-4 Visual\nFormat profile: Streaming Video@L1\nFormat settings, BVOP: Yes\nFormat settings, QPel: No\nFormat settings, GMC: No warppoints\nFormat settings, Matrix: Default (H.263)\nMuxing mode: Packed bitstream\nCodec ID: XVID\nBit rate: 3 460 Kbps\nWidth: 1 280 pixels\nHeight: 544 pixels\nDisplay aspect ratio: 2.35\nFrame rate: 23.976 fps\nResolution: 24 bits\nColorimetry: 4:2:0\nScan type: Progressive\nBits/(Pixel*Frame): 0.207\nStream size: 3.62 GiB (88%)\n\nAudio\nFormat: AC-3\nBit rate mode: Constant\nBit rate: 448 Kbps\nChannel(s): 6 channels\nSampling rate: 48.0 KHz\nStream size: 481 MiB (11%) ","torrent":{"xt":"urn:btih:3da1359c9efc74e77233ff199b67592f14cafefe","amp;dn":"The.Chronicles.Of.Narnia.Duology.720p.BRRip.XviD.AC3-LEGi0N","amp;tr":["udp%3A%2F%2Ftracker.openbittorrent.com%3A80","udp%3A%2F%2Fopen.demonii.com%3A1337","udp%3A%2F%2Ftracker.coppersurfer.tk%3A6969","udp%3A%2F%2Fexodus.desync.com%3A6969"],"infoHash":"3da1359c9efc74e77233ff199b67592f14cafefe","infoHashBuffer":{"type":"Buffer","data":[61,161,53,156,158,252,116,231,114,51,255,25,155,103,89,47,20,202,254,254]},"announce":[],"urlList":[]}}